#!OML:ASF X:\für Bonn\!DataBase\2005_08_12_Daniel\c3d\Daniel.ASF
:FULLY-SPECIFIED
:DEGREES
108
root -3.65673 6.20022 -1.24307 25.5092 -88.4638 -57.2565
lowerback 56.057 -3.44451 4.06538
upperback 5.37597 -3.8627 -2.15214
thorax -15.6921 -2.46543 -2.14209
lowerneck 7.81457 2.41803 -1.15485
upperneck -3.62289 3.075 -0.491113
head -2.51168 1.56147 -0.0976005
rclavicle -9.93923e-017 -9.54166e-015
rhumerus 71.5066 -15.8199 -148.98
rradius 5.75426
rwrist 114.517
rhand -23.5296 11.4512
rfingers 7.12502
rthumb 2.93169 -18.5084
lclavicle -9.93923e-017 -9.54166e-015
lhumerus 58.191 3.41335 92.3997
lradius 10.5879
lwrist -68.9807
lhand -17.648 1.21282
lfingers 7.12502
lthumb 8.61007 31.0172
rfemur 20.2082 -47.6251 -147.011
rtibia 159.235
rfoot 263.382 79.5471
rtoes -10.4449
lfemur -360.957 248.208 -240.232
ltibia 204.659
lfoot 74.4553 -94.6831
ltoes 11.0336
109
root -3.63944 6.26159 -1.24429 24.3093 -88.4551 -55.7841
lowerback 56.1663 -3.45894 4.05575
upperback 5.31953 -3.87212 -2.12918
thorax -15.768 -2.46737 -2.1038
lowerneck 7.88902 2.4173 -1.13934
upperneck -3.76267 3.07092 -0.547487
head -2.57132 1.5619 -0.120508
rclavicle -1.77912e-014 8.34896e-015
rhumerus 71.4027 -15.7695 -148.706
rradius 5.74549
rwrist 113.876
rhand -23.2093 11.5111
rfingers 7.12502
rthumb 3.241 -18.444
lclavicle -1.77912e-014 8.34896e-015
lhumerus 58.3619 3.64999 92.7961
lradius 10.332
lwrist -69.5984
lhand -17.3 1.24841
lfingers 7.12502
lthumb 8.94584 31.0388
rfemur 21.5698 -47.939 -146.705
rtibia 158.928
rfoot 269.819 78.4583
rtoes -10.9725
lfemur -539.364 111.443 -61.8773
ltibia 155.043
lfoot 59.2549 -85.6548
ltoes 10.7262
110
root -3.62073 6.33226 -1.24449 23.3682 -88.4492 -54.547
lowerback 56.2755 -3.48951 4.08597
upperback 5.2568 -3.8795 -2.12717
thorax -15.8538 -2.46935 -2.10825
lowerneck 7.86166 2.40612 -1.13047
upperneck -3.86378 3.05585 -0.573373
head -2.59964 1.5558 -0.1302
rclavicle 2.24627e-014 -1.90833e-014
rhumerus 71.2986 -15.7442 -148.439
rradius 5.80397
rwrist 113.23
rhand -23.0551 11.6437
rfingers 7.12502
rthumb 3.38987 -18.3091
lclavicle 2.24627e-014 -1.90833e-014
lhumerus 58.578 3.97978 93.4498
lradius 10.151
lwrist -70.6602
lhand -17.0573 1.31484
lfingers 7.12502
lthumb 9.18002 31.095
rfemur 23.015 -48.3528 -146.31
rtibia 158.535
rfoot 275.698 77.4696
rtoes -11.4796
lfemur -539.675 111.115 -63.6487
ltibia 154.702
lfoot 40.5604 -85.7374
ltoes 10.2582
111
root -3.60108 6.4141 -1.24586 21.9207 -88.4423 -52.8156
lowerback 56.425 -3.50961 4.081
upperback 5.18184 -3.89215 -2.1138
thorax -15.9567 -2.47232 -2.08017
lowerneck 7.86997 2.40274 -1.13001
upperneck -3.97657 3.05006 -0.591109
head -2.63893 1.55421 -0.136916
rclavicle 9.64106e-015 -2.62396e-014
rhumerus 71.1747 -15.7091 -148.166
rradius 5.86903
rwrist 112.676
rhand -23.0895 11.7385
rfingers 7.12502
rthumb 3.35671 -18.2148
lclavicle 9.64106e-015 -2.62396e-014
lhumerus 58.8142 4.33779 94.1549
lradius 10.0563
lwrist -71.8314
lhand -16.7818 1.40395
lfingers 7.12502
lthumb 9.44593 31.1723
rfemur 24.4983 -48.8536 -145.752
rtibia 158.054
rfoot 281.542 76.6005
rtoes -11.7638
lfemur -540.462 110.779 -66.1211
ltibia 154.271
lfoot 22.2514 -85.2401
ltoes 9.88437
112
root -3.58082 6.45508 -1.24145 21.1207 -88.4382 -51.6774
lowerback 56.5268 -3.52815 4.08157
upperback 5.10445 -3.89722 -2.09344
thorax -16.0575 -2.47153 -2.05141
lowerneck 7.93513 2.40072 -1.1018
upperneck -4.14249 3.04508 -0.652756
head -2.70571 1.55439 -0.163912
rclavicle 4.37326e-015 -1.59028e-014
rhumerus 71.0339 -15.6538 -147.888
rradius 5.94919
rwrist 112.305
rhand -23.258 11.7916
rfingers 7.12502
rthumb 3.19395 -18.1642
lclavicle 4.37326e-015 -1.59028e-014
lhumerus 59.0501 4.6472 94.7571
lradius 10.0529
lwrist -72.8839
lhand -16.4927 1.48863
lfingers 7.12502
lthumb 9.72481 31.2441
rfemur 25.0996 -49.9578 -144.852
rtibia 157.86
rfoot 287.965 76.3249
rtoes -11.9747
lfemur -543.276 110.178 -70.0843
ltibia 154.174
lfoot 12.9239 -84.0802
ltoes 9.41554
113
root -3.55956 6.56017 -1.24246 19.8362 -88.4566 -50.0829
lowerback 56.6751 -3.54777 4.07392
upperback 5.01778 -3.91378 -2.10163
thorax -16.1769 -2.47513 -2.04459
lowerneck 8.03978 2.40295 -1.09947
upperneck -4.32062 3.04613 -0.652164
head -2.78584 1.55589 -0.167535
rclavicle 1.58034e-014 1.19271e-014
rhumerus 70.8979 -15.6028 -147.646
rradius 6.04899
rwrist 112.075
rhand -23.4682 11.7963
rfingers 7.12502
rthumb 2.99097 -18.1625
lclavicle 1.58034e-014 1.19271e-014
lhumerus 59.3003 4.96742 95.4201
lradius 10.0959
lwrist -74.0108
lhand -16.0578 1.57176
lfingers 7.12502
lthumb 10.1444 31.3072
rfemur 26.6884 -50.5952 -144.023
rtibia 157.196
rfoot 293.339 75.2148
rtoes -12.153
lfemur -544.464 109.931 -73.363
ltibia 153.588
lfoot 0.664617 -82.8573
ltoes 8.81921
114
root -3.53601 6.67518 -1.24291 19.2787 -88.4717 -49.1672
lowerback 56.7761 -3.55792 4.06932
upperback 4.93322 -3.91174 -2.0845
thorax -16.2863 -2.47082 -2.02076
lowerneck 8.21773 2.39873 -1.11138
upperneck -4.56288 3.03254 -0.694946
head -2.90154 1.55228 -0.183713
rclavicle -4.87022e-015 3.1408e-014
rhumerus 70.7972 -15.4747 -147.396
rradius 6.10336
rwrist 112.025
rhand -23.6488 11.6981
rfingers 7.12502
rthumb 2.81653 -18.263
lclavicle -4.87022e-015 3.1408e-014
lhumerus 59.5049 5.09385 95.7253
lradius 10.2293
lwrist -74.5363
lhand -15.4866 1.66012
lfingers 7.12502
lthumb 10.6954 31.3679
rfemur 28.2709 -51.3619 -143.016
rtibia 156.451
rfoot 298.46 74.1413
rtoes -12.2563
lfemur -546.386 109.629 -77.4834
ltibia 152.931
lfoot -6.40837 -81.2575
ltoes 8.38796
115
root -3.51157 6.80096 -1.24244 18.2958 -88.5139 -47.8277
lowerback 56.9075 -3.55907 4.06196
upperback 4.83067 -3.90229 -2.08667
thorax -16.4218 -2.46273 -2.02076
lowerneck 8.42549 2.38701 -1.10226
upperneck -4.79998 3.0113 -0.726995
head -3.02155 1.54413 -0.200139
rclavicle -7.25564e-015 -7.95139e-016
rhumerus 70.7393 -15.3644 -147.163
rradius 6.1299
rwrist 112.016
rhand -23.7931 11.5879
rfingers 7.12502
rthumb 2.67713 -18.375
lclavicle -7.25564e-015 -7.95139e-016
lhumerus 59.6107 5.07281 95.8322
lradius 10.4769
lwrist -74.6698
lhand -14.8305 1.73333
lfingers 7.12502
lthumb 11.3282 31.4074
rfemur 29.6784 -52.3051 -141.723
rtibia 155.632
rfoot 303.216 72.8775
rtoes -12.29
lfemur -548.711 109.431 -82.2295
ltibia 152.178
lfoot -11.4717 -79.4372
ltoes 7.955
116
root -3.48642 6.93491 -1.24198 17.9113 -88.5613 -47.0713
lowerback 57.0206 -3.55682 4.03889
upperback 4.73302 -3.89722 -2.07738
thorax -16.549 -2.45598 -1.99878
lowerneck 8.6801 2.38979 -1.12171
upperneck -5.10585 3.00462 -0.761443
head -3.17547 1.54429 -0.214651
rclavicle 4.57205e-015 1.74931e-014
rhumerus 70.6828 -15.1648 -146.951
rradius 6.14284
rwrist 112.066
rhand -23.838 11.4764
rfingers 7.12502
rthumb 2.63378 -18.4871
lclavicle 4.57205e-015 1.74931e-014
lhumerus 59.6765 4.96794 95.7076
lradius 10.8046
lwrist -74.3156
lhand -14.085 1.81293
lfingers 7.12502
lthumb 12.0471 31.4462
rfemur 30.8543 -53.421 -140.119
rtibia 154.768
rfoot 307.507 71.4954
rtoes -12.326
lfemur -551.538 109.32 -87.5195
ltibia 151.37
lfoot -14.8792 -77.5223
ltoes 7.51654
117
root -3.46089 7.07546 -1.24152 17.0559 -88.6018 -45.8351
lowerback 57.1309 -3.56111 4.04187
upperback 4.62804 -3.88545 -2.08426
thorax -16.6866 -2.4469 -2.01058
lowerneck 8.94379 2.38281 -1.13868
upperneck -5.39723 2.98633 -0.775109
head -3.32746 1.53779 -0.22225
rclavicle -1.07344e-014 -3.57812e-015
rhumerus 70.6532 -14.9847 -146.752
rradius 6.18553
rwrist 112.082
rhand -23.7512 11.3736
rfingers 7.12502
rthumb 2.71762 -18.5889
lclavicle -1.07344e-014 -3.57812e-015
lhumerus 59.7635 4.73155 95.4314
lradius 10.9974
lwrist -73.7068
lhand -13.5673 1.95584
lfingers 7.12502
lthumb 12.5463 31.5591
rfemur 31.7972 -54.6655 -138.229
rtibia 153.836
rfoot 311.274 70.0067
rtoes -12.4588
lfemur -555.209 109.305 -93.7433
ltibia 150.498
lfoot -16.8873 -75.4547
ltoes 7.05634
118
root -3.43509 7.22194 -1.24047 16.3272 -88.6584 -44.7167
lowerback 57.2411 -3.5482 4.014
upperback 4.51292 -3.86827 -2.07632
thorax -16.8347 -2.43402 -1.99426
lowerneck 9.18631 2.37375 -1.17149
upperneck -5.64364 2.9637 -0.787213
head -3.46092 1.52921 -0.225498
rclavicle -3.39922e-014 -1.23246e-014
rhumerus 70.6355 -14.7728 -146.549
rradius 6.18634
rwrist 112.039
rhand -23.5927 11.3311
rfingers 7.12502
rthumb 2.87076 -18.6293
lclavicle -3.39922e-014 -1.23246e-014
lhumerus 59.962 4.49855 95.1294
lradius 10.9312
lwrist -72.9007
lhand -13.3458 2.0622
lfingers 7.12502
lthumb 12.7599 31.6523
rfemur 32.3936 -56.093 -135.96
rtibia 152.849
rfoot 314.578 68.4031
rtoes -12.5457
lfemur -559.18 109.496 -100.315
ltibia 149.554
lfoot -18.1847 -73.3449
ltoes 6.57751
119
root -3.40908 7.37324 -1.23955 15.5411 -88.6938 -43.5512
lowerback 57.3361 -3.55676 4.02857
upperback 4.42447 -3.85707 -2.08512
thorax -16.9514 -2.42632 -2.01388
lowerneck 9.36916 2.36157 -1.18949
upperneck -5.91072 2.93938 -0.800708
head -3.59042 1.51965 -0.230988
rclavicle -1.92821e-014 1.55052e-014
rhumerus 70.6667 -14.53 -146.375
rradius 6.19962
rwrist 111.907
rhand -23.3713 11.3315
rfingers 7.12502
rthumb 3.08457 -18.6259
lclavicle -1.92821e-014 1.55052e-014
lhumerus 60.269 4.30206 94.9878
lradius 10.7311
lwrist -72.2259
lhand -13.3823 2.07235
lfingers 7.12502
lthumb 12.7246 31.6646
rfemur 32.5641 -57.6254 -133.252
rtibia 151.797
rfoot 317.627 66.7797
rtoes -12.6297
lfemur -563.804 109.94 -107.532
ltibia 148.568
lfoot -18.7005 -71.166
ltoes 6.24929
